<?xml version="1.0" standalone="no"?>
<!DOCTYPE svg PUBLIC "-//W3C//DTD SVG 20010904//EN"
 "http://www.w3.org/TR/2001/REC-SVG-20010904/DTD/svg10.dtd">
<svg version="1.0" xmlns="http://www.w3.org/2000/svg"
 width="643.000000pt" height="1280.000000pt" viewBox="0 0 643.000000 1280.000000"
 preserveAspectRatio="xMidYMid meet">
<g transform="translate(0.000000,1280.000000) scale(0.100000,-0.100000)"
fill="#000000" stroke="none">
<path d="M3925 12791 c-11 -5 -54 -11 -95 -15 -100 -10 -154 -23 -221 -57
-149 -74 -224 -172 -293 -379 -64 -193 -82 -289 -141 -755 -28 -228 -50 -339
-70 -355 -8 -7 -57 -11 -127 -11 -351 1 -390 -2 -444 -31 -66 -35 -108 -70
-144 -122 -33 -50 -90 -207 -114 -321 -10 -44 -44 -195 -76 -335 -34 -146 -66
-315 -75 -395 -43 -380 -72 -502 -173 -735 -87 -201 -142 -365 -162 -483 -10
-62 -26 -146 -34 -187 -9 -41 -25 -136 -36 -210 -65 -442 -76 -497 -127 -605
-12 -27 -23 -64 -23 -82 0 -38 -5 -42 -69 -50 -47 -5 -53 -10 -92 -61 -53 -71
-69 -118 -69 -202 0 -57 5 -78 35 -136 45 -91 90 -144 120 -144 14 0 29 -9 35
-20 7 -13 13 -129 17 -298 6 -270 5 -278 -16 -317 -15 -28 -21 -56 -20 -95 1
-85 14 -171 26 -178 28 -17 35 -75 41 -308 4 -231 4 -242 -14 -248 -20 -6 -49
-60 -41 -73 11 -17 49 -1276 40 -1300 -7 -17 -127 -18 -140 0 -5 6 -15 35 -22
62 -18 71 -41 107 -84 128 -33 17 -42 17 -79 5 -53 -17 -77 -50 -99 -135 -16
-67 -17 -68 -55 -75 -22 -4 -73 -7 -114 -7 -191 -2 -520 -44 -640 -82 -85 -27
-108 -40 -152 -86 -79 -82 -120 -210 -143 -447 -37 -393 -44 -715 -25 -1104 5
-108 14 -366 20 -572 32 -1132 37 -1173 183 -1390 28 -41 59 -87 69 -102 10
-15 18 -31 18 -36 0 -5 11 -25 23 -44 13 -19 27 -54 31 -77 9 -55 29 -94 81
-156 23 -27 52 -68 63 -91 27 -54 60 -74 119 -74 58 1 158 24 180 41 26 22 14
128 -21 177 l-28 41 27 36 c15 19 37 37 49 40 11 2 157 6 324 8 l302 5 6 -26
c13 -58 19 -69 70 -128 48 -55 54 -66 54 -107 0 -26 5 -49 13 -54 6 -4 50 -7
96 -6 97 3 112 11 135 81 29 85 17 152 -40 213 l-24 25 25 22 c18 16 25 32 25
58 0 29 9 46 39 80 98 105 144 259 173 574 49 541 -47 2538 -142 2938 -23 95
-38 129 -84 180 l-33 37 -16 580 c-10 319 -24 681 -32 805 -8 124 -19 362 -24
530 -6 168 -16 446 -23 618 -10 278 -9 314 4 330 9 9 19 37 23 62 11 74 23 95
100 164 82 74 95 100 95 201 0 80 15 179 44 295 27 107 236 612 256 618 29 10
2 -100 -49 -203 -69 -138 -104 -296 -151 -685 -6 -47 -20 -124 -31 -172 -11
-48 -19 -99 -17 -115 5 -48 108 -100 263 -132 94 -19 109 -27 99 -50 -8 -19
-10 -44 -21 -241 -18 -339 0 -595 57 -839 21 -91 43 -193 50 -226 6 -33 29
-125 51 -205 22 -80 44 -163 51 -185 29 -110 85 -270 124 -359 24 -54 44 -107
44 -118 0 -11 11 -38 24 -61 20 -36 25 -61 30 -163 6 -135 36 -383 66 -552 23
-130 67 -272 117 -381 19 -42 38 -94 43 -116 17 -74 128 -392 193 -551 154
-379 195 -481 207 -518 9 -27 11 -71 7 -140 -13 -210 -51 -354 -163 -605 -36
-78 -92 -225 -126 -325 -34 -99 -69 -200 -79 -223 -29 -68 -96 -316 -125 -463
-26 -130 -27 -140 -15 -260 11 -116 35 -257 45 -267 2 -3 124 -14 270 -26 248
-20 267 -20 283 -4 18 18 23 77 43 482 9 198 14 239 52 415 37 173 42 211 43
335 2 221 32 432 63 443 16 5 54 -82 88 -200 14 -51 37 -119 52 -152 24 -56
26 -74 30 -229 3 -129 0 -187 -13 -255 -22 -112 -61 -271 -85 -342 -16 -46
-17 -67 -10 -130 5 -41 14 -140 20 -219 6 -80 17 -171 26 -203 8 -32 14 -64
13 -71 -5 -40 -6 -40 169 -34 177 5 268 20 282 47 9 17 22 104 45 310 8 74 20
169 25 210 6 41 8 104 5 140 -9 89 36 357 76 458 39 99 41 200 5 270 -52 99
-131 207 -174 235 -80 54 -117 145 -178 435 -58 276 -78 495 -52 559 31 77 50
132 58 168 12 60 47 177 74 247 56 150 108 349 126 483 16 128 31 424 24 497
-5 51 -3 73 8 90 21 32 45 113 53 176 4 29 1 164 -5 300 -13 244 -13 248 10
332 12 47 44 180 70 295 101 440 152 641 171 678 10 21 19 43 19 49 0 7 20 64
45 128 24 63 48 133 54 155 5 22 18 76 30 121 29 115 41 272 41 565 l0 256 71
54 c39 30 81 70 92 91 l21 36 -23 59 c-13 32 -43 104 -67 160 -38 88 -42 105
-33 127 10 21 8 30 -17 63 -17 21 -36 51 -44 66 -7 15 -38 57 -67 92 -29 35
-53 71 -53 79 0 17 49 22 335 36 490 24 628 45 956 143 63 19 186 51 274 72
88 21 172 46 188 57 58 41 70 109 41 235 -21 94 -71 192 -157 304 -266 352
-301 394 -498 594 -113 116 -261 271 -329 345 -67 74 -214 227 -324 340 -213
216 -242 255 -270 366 -21 86 -53 357 -71 609 -20 273 -68 672 -101 828 -44
210 -112 379 -197 492 -89 118 -184 174 -375 221 -75 19 -139 34 -142 33 -3 0
-14 -4 -25 -8z m1345 -3571 c254 -253 458 -465 455 -470 -17 -27 -427 -161
-595 -194 -230 -46 -421 -76 -485 -76 -58 0 -69 4 -127 43 -68 45 -86 80 -49
92 12 3 23 16 26 28 11 53 25 169 25 209 0 46 22 88 45 88 8 0 17 12 21 28 3
15 8 33 10 41 3 8 9 95 14 194 6 98 17 211 24 250 8 40 17 97 21 128 6 59 20
79 65 98 65 27 61 31 550 -459z"/>
</g>
</svg>
